#!OML:ASF H:\Terrain\Patient Classification 1\Walking\steve\steve.ASF
:FULLY-SPECIFIED
:DEGREES
32
root 7.63176 15.1998 -32.5123 5.05836 2.01365 0.427393
lowerback 3.01449 0.012351 1.09712
upperback -2.07807 0.143491 2.10423
thorax -3.83446 0.0723943 1.54481
lowerneck -10.6836 -0.415512 -3.45747
upperneck 13.7885 -0.252561 1.79527
head 5.93801 -0.164205 1.11407
rclavicle -1.97542e-014 8.74653e-015
rhumerus -72.2891 -41.7615 -28.8849
rradius 13.1
rwrist 51.8253
rhand -21.4398 -30.6824
rfingers 7.12502
rthumb 4.94965 -60.6046
lclavicle -1.97542e-014 8.74653e-015
lhumerus -28.0206 -7.96494 91.2262
lradius 48.4829
lwrist 26.5733
lhand -33.0646 -17.2281
lfingers 7.12502
lthumb -6.27655 12.6589
rfemur -37.6818 4.46353 24.3126
rtibia 42.0523
rfoot -8.74088 5.21596
rtoes 10.7771
lfemur -0.929672 1.43435 -22.4751
ltibia 55.5173
lfoot 20.1554 15.4473
ltoes 7.53601
33
root 7.63535 15.254 -32.2653 4.87744 1.88501 -0.244572
lowerback 2.97863 0.24909 1.72566
upperback -1.90847 0.487232 2.22008
thorax -3.64152 0.229285 1.28987
lowerneck -10.5211 -0.526349 -3.5524
upperneck 13.5651 -0.436317 2.09043
head 5.84529 -0.235206 1.20707
rclavicle 1.799e-014 -7.95139e-015
rhumerus -67.9937 -40.8955 -35.1636
rradius 13.5235
rwrist 46.3586
rhand -22.4936 -31.9054
rfingers 7.12502
rthumb 3.93212 -61.8488
lclavicle 1.799e-014 -7.95139e-015
lhumerus -28.0044 -7.93754 91.5541
lradius 46.5387
lwrist 26.0538
lhand -31.6073 -18.1203
lfingers 7.12502
lthumb -4.86952 11.8037
rfemur -36.2129 4.62348 25.1647
rtibia 41.6562
rfoot -9.61734 5.35909
rtoes 9.66671
lfemur -2.97042 1.66488 -21.5976
ltibia 58.862
lfoot 16.2234 15.7861
ltoes 14.4784
34
root 7.63938 15.2928 -32.0329 4.79126 1.92363 -1.00359
lowerback 2.9568 0.40353 2.34797
upperback -1.83184 0.725431 2.42832
thorax -3.54851 0.335945 1.14175
lowerneck -10.4161 -0.629715 -3.5328
upperneck 13.6224 -0.602273 2.21152
head 5.85032 -0.306387 1.22901
rclavicle 7.30534e-015 0
rhumerus -63.9692 -39.6527 -40.857
rradius 14.0763
rwrist 41.5383
rhand -22.7308 -33.2234
rfingers 7.12502
rthumb 3.70311 -63.1709
lclavicle 7.30534e-015 0
lhumerus -28.1381 -7.74425 91.8887
lradius 44.7059
lwrist 25.3935
lhand -30.2681 -17.8467
lfingers 7.12502
lthumb -3.57633 12.1031
rfemur -34.9218 4.43627 26.1846
rtibia 41.2042
rfoot -10.2519 5.75657
rtoes 9.28366
lfemur -5.37601 1.95575 -20.4799
ltibia 62.0916
lfoot 13.8755 13.7126
ltoes 14.2666
35
root 7.63608 15.3351 -31.8042 4.75314 1.95944 -1.51484
lowerback 2.96514 0.524679 2.63139
upperback -1.79027 0.902089 2.52797
thorax -3.50867 0.418797 1.07538
lowerneck -10.4094 -0.740567 -3.23205
upperneck 13.7795 -0.792498 2.13344
head 5.90274 -0.389741 1.14015
rclavicle -1.05853e-014 -1.35174e-014
rhumerus -61.4243 -39.0983 -44.2851
rradius 14.4171
rwrist 41.0316
rhand -21.9508 -34.4576
rfingers 7.12502
rthumb 4.45625 -64.3907
lclavicle -1.05853e-014 -1.35174e-014
lhumerus -28.7093 -7.97288 92.1759
lradius 43.7297
lwrist 25.1511
lhand -29.9053 -16.7416
lfingers 7.12502
lthumb -3.226 13.2138
rfemur -33.6403 4.20348 26.9571
rtibia 40.7034
rfoot -10.9279 5.99913
rtoes 8.27679
lfemur -7.99849 2.65248 -19.5866
ltibia 65.1376
lfoot 13.7564 9.43923
ltoes 5.6852
36
root 7.62876 15.3834 -31.5682 4.85111 1.85402 -1.69615
lowerback 2.81211 0.746515 2.64391
upperback -1.79581 1.1904 2.47641
thorax -3.42647 0.562075 1.00006
lowerneck -10.2692 -0.95812 -3.15804
upperneck 13.7374 -1.11234 2.18829
head 5.87427 -0.537643 1.11956
rclavicle 1.04362e-014 2.06736e-014
rhumerus -58.8407 -38.3065 -47.9167
rradius 14.6323
rwrist 39.628
rhand -22.2798 -34.2906
rfingers 7.12502
rthumb 4.13854 -64.2301
lclavicle 1.04362e-014 2.06736e-014
lhumerus -29.3822 -8.30626 92.5157
lradius 42.7532
lwrist 24.855
lhand -29.8666 -16.1306
lfingers 7.12502
lthumb -3.18866 13.8253
rfemur -32.4177 4.19418 27.315
rtibia 40.121
rfoot -11.5736 6.08959
rtoes 6.05131
lfemur -10.6069 3.32173 -19.165
ltibia 67.7202
lfoot 13.1141 6.04374
ltoes -3.47689
37
root 7.62783 15.4225 -31.3318 4.94332 1.73595 -1.79753
lowerback 2.6754 1.01723 2.71288
upperback -1.82422 1.54685 2.39167
thorax -3.37396 0.73729 0.856262
lowerneck -10.0938 -1.21975 -3.43372
upperneck 13.7553 -1.48243 2.54506
head 5.86477 -0.705818 1.24832
rclavicle 1.05853e-014 -2.78299e-014
rhumerus -55.5632 -36.5689 -52.7079
rradius 15.0127
rwrist 34.6879
rhand -23.9796 -32.7141
rfingers 7.12502
rthumb 2.49705 -62.6793
lclavicle 1.05853e-014 -2.78299e-014
lhumerus -29.8407 -8.07701 92.7686
lradius 41.1062
lwrist 23.6219
lhand -29.1925 -16.2822
lfingers 7.12502
lthumb -2.5376 13.6824
rfemur -31.2376 4.08958 27.5645
rtibia 39.5464
rfoot -12.1612 6.54925
rtoes 5.49545
lfemur -12.9675 3.74346 -18.8956
ltibia 69.6885
lfoot 11.5067 3.98817
ltoes -12.9071
38
root 7.636 15.471 -31.096 4.9106 1.6533 -2.07298
lowerback 2.59769 1.19609 2.95649
upperback -1.75243 1.7894 2.40413
thorax -3.24829 0.854175 0.72223
lowerneck -10.0479 -1.29903 -3.59149
upperneck 13.9202 -1.62899 2.94103
head 5.91747 -0.755767 1.38832
rclavicle -1.28216e-014 -1.43125e-014
rhumerus -52.5739 -35.1981 -56.5051
rradius 15.5151
rwrist 31.4232
rhand -23.9706 -33.3202
rfingers 7.12502
rthumb 2.5058 -63.2852
lclavicle -1.28216e-014 -1.43125e-014
lhumerus -30.1749 -7.55148 92.8436
lradius 39.2395
lwrist 21.7626
lhand -28.2364 -16.9828
lfingers 7.12502
lthumb -1.61424 12.9908
rfemur -29.9568 3.81831 27.9762
rtibia 39.041
rfoot -12.8852 7.28326
rtoes 7.17495
lfemur -15.0858 4.06654 -18.4994
ltibia 71.0882
lfoot 9.76966 2.95693
ltoes -16.4793
39
root 7.64231 15.5212 -30.858 4.79118 1.41769 -2.1712
lowerback 2.49994 1.35482 2.93777
upperback -1.60339 1.98962 2.39937
thorax -3.03785 0.957185 0.721464
lowerneck -10.0011 -1.28457 -3.67239
upperneck 14.0504 -1.63538 3.17112
head 5.95288 -0.746022 1.47463
rclavicle -3.42904e-015 -9.54166e-015
rhumerus -49.7601 -33.8777 -59.7476
rradius 16.0849
rwrist 29.9051
rhand -22.4558 -35.1722
rfingers 7.12502
rthumb 3.96864 -65.115
lclavicle -3.42904e-015 -9.54166e-015
lhumerus -30.7449 -6.97176 92.8514
lradius 37.7698
lwrist 19.9907
lhand -27.3283 -17.6296
lfingers 7.12502
lthumb -0.737158 12.3488
rfemur -28.5755 3.702 28.1758
rtibia 38.5887
rfoot -13.5311 7.73591
rtoes 7.55017
lfemur -16.9714 4.37786 -18.3507
ltibia 71.9914
lfoot 8.04244 3.30508
ltoes -11.3863
